{
  "accessors": [
    {
      "bufferView": 2,
      "componentType": 5126,
      "count": 4203,
      "max": [
        1.000341534614563,
        0.997576892375946,
        1.0003416538238525
      ],
      "min": [
        -1.000341534614563,
        -0.997576892375946,
        -1.000341534614563
      ],
      "type": "VEC3"
    },
    {
      "bufferView": 2,
      "byteOffset": 50436,
      "componentType": 5126,
      "count": 4203,
      "max": [
        0.9999648332595825,
        1.0,
        0.9999648332595825
      ],
      "min": [
        -0.9999648332595825,
        -1.0,
        -0.9999648332595825
      ],
      "type": "VEC3"
    },
    {
      "bufferView": 1,
      "componentType": 5126,
      "count": 4203,
      "max": [
        0.9708623886108398,
        0.738686740398407
      ],
      "min": [
        0.03111490048468113,
        0.0035260741133242846
      ],
      "type": "VEC2"
    },
    {
      "bufferView": 0,
      "componentType": 5125,
      "count": 19584,
      "type": "SCALAR"
    },
    {
      "bufferView": 2,
      "byteOffset": 100872,
      "componentType": 5126,
      "count": 65532,
      "max": [
        0.036093730479478836,
        0.48831793665885925,
        1.0013039112091064
      ],
      "min": [
        -1.9617652893066406,
        -0.07732633501291275,
        -0.9959351420402527
      ],
      "type": "VEC3"
    },
    {
      "bufferView": 2,
      "byteOffset": 887256,
      "componentType": 5126,
      "count": 65532,
      "max": [
        0.999483585357666,
        0.9996891021728516,
        0.9993512630462646
      ],
      "min": [
        -0.9997365474700928,
        -0.9996891021728516,
        -0.9997328519821167
      ],
      "type": "VEC3"
    },
    {
      "bufferView": 1,
      "byteOffset": 33624,
      "componentType": 5126,
      "count": 65532,
      "max": [
        0.999853789806366,
        0.8273714780807495
      ],
      "min": [
        0.00014627250493504107,
        0.0060660052113235
      ],
      "type": "VEC2"
    },
    {
      "bufferView": 0,
      "byteOffset": 78336,
      "componentType": 5125,
      "count": 284208,
      "type": "SCALAR"
    },
    {
      "bufferView": 2,
      "byteOffset": 1673640,
      "componentType": 5126,
      "count": 19523,
      "max": [
        0.036093730479478836,
        0.48831403255462646,
        0.08238524943590164
      ],
      "min": [
        -1.9062646627426147,
        -0.07732807099819183,
        -0.9959351420402527
      ],
      "type": "VEC3"
    },
    {
      "bufferView": 2,
      "byteOffset": 1907916,
      "componentType": 5126,
      "count": 19523,
      "max": [
        0.9970096349716187,
        0.9996891021728516,
        0.9991781711578369
      ],
      "min": [
        -0.9997365474700928,
        -0.9996888637542725,
        -0.9990416169166565
      ],
      "type": "VEC3"
    },
    {
      "bufferView": 1,
      "byteOffset": 557880,
      "componentType": 5126,
      "count": 19523,
      "max": [
        0.999853789806366,
        0.8273714780807495
      ],
      "min": [
        0.00014627250493504107,
        0.0060660052113235
      ],
      "type": "VEC2"
    },
    {
      "bufferView": 0,
      "byteOffset": 1215168,
      "componentType": 5125,
      "count": 83712,
      "type": "SCALAR"
    }
  ],
  "asset": {
    "extras": {
      "author": "Rohit Pawar (https://sketchfab.com/rohit8999)",
      "license": "CC-BY-4.0 (http://creativecommons.org/licenses/by/4.0/)",
      "source": "https://sketchfab.com/3d-models/cricket-ball-sports-white-f7fb5ae0d11e4d37a2d9ebccfcba5592",
      "title": "Cricket Ball (Sports) (White)."
    },
    "generator": "Sketchfab-12.68.0",
    "version": "2.0"
  },
  "bufferViews": [
    {
      "buffer": 0,
      "byteLength": 1550016,
      "name": "floatBufferViews",
      "target": 34963
    },
    {
      "buffer": 0,
      "byteLength": 714064,
      "byteOffset": 1550016,
      "byteStride": 8,
      "name": "floatBufferViews",
      "target": 34962
    },
    {
      "buffer": 0,
      "byteLength": 2142192,
      "byteOffset": 2264080,
      "byteStride": 12,
      "name": "floatBufferViews",
      "target": 34962
    }
  ],
  "buffers": [
    {
      "byteLength": 4406272,
      "uri": "scene.bin"
    }
  ],
  "images": [
    {
      "uri": "textures/Material.004_baseColor.jpeg"
    }
  ],
  "materials": [
    {
      "doubleSided": true,
      "name": "Material.004",
      "pbrMetallicRoughness": {
        "baseColorTexture": {
          "index": 0
        },
        "metallicFactor": 0.0,
        "roughnessFactor": 0.75
      }
    },
    {
      "doubleSided": true,
      "name": "Material.002",
      "pbrMetallicRoughness": {
        "baseColorFactor": [
          1.0,
          0.795796,
          0.4846,
          1.0
        ],
        "metallicFactor": 0.0
      }
    }
  ],
  "meshes": [
    {
      "name": "Sphere_Material.004_0",
      "primitives": [
        {
          "attributes": {
            "NORMAL": 1,
            "POSITION": 0,
            "TEXCOORD_0": 2
          },
          "indices": 3,
          "material": 0,
          "mode": 4
        }
      ]
    },
    {
      "name": "Cylinder.002_Material.002_0",
      "primitives": [
        {
          "attributes": {
            "NORMAL": 5,
            "POSITION": 4,
            "TEXCOORD_0": 6
          },
          "indices": 7,
          "material": 1,
          "mode": 4
        }
      ]
    },
    {
      "name": "Cylinder.002_Material.002_0",
      "primitives": [
        {
          "attributes": {
            "NORMAL": 9,
            "POSITION": 8,
            "TEXCOORD_0": 10
          },
          "indices": 11,
          "material": 1,
          "mode": 4
        }
      ]
    }
  ],
  "nodes": [
    {
      "children": [
        1
      ],
      "matrix": [
        1.0,
        0.0,
        0.0,
        0.0,
        0.0,
        2.220446049250313e-16,
        -1.0,
        0.0,
        0.0,
        1.0,
        2.220446049250313e-16,
        0.0,
        0.0,
        0.0,
        0.0,
        1.0
      ],
      "name": "Sketchfab_model"
    },
    {
      "children": [
        2
      ],
      "matrix": [
        1.0,
        0.0,
        0.0,
        0.0,
        0.0,
        0.0,
        1.0,
        0.0,
        0.0,
        -1.0,
        0.0,
        0.0,
        0.0,
        0.0,
        0.0,
        1.0
      ],
      "name": "8bb2481228794b669714898edff74f69.fbx"
    },
    {
      "children": [
        3,
        6,
        8
      ],
      "name": "RootNode"
    },
    {
      "children": [
        4
      ],
      "matrix": [
        -29.08647719990347,
        -5.518906457566863,
        -95.51711910171437,
        0.0,
        56.63930913109449,
        79.46723428563203,
        -21.83912397841966,
        0.0,
        77.11008775993375,
        -60.45246356562044,
        -19.98834696773717,
        0.0,
        -53.74567413330078,
        529.6162109375,
        134.99009704589844,
        1.0
      ],
      "name": "Light"
    },
    {
      "children": [
        5
      ],
      "matrix": [
        1.0,
        0.0,
        0.0,
        0.0,
        0.0,
        2.220446049250313e-16,
        1.0,
        0.0,
        0.0,
        -1.0,
        2.220446049250313e-16,
        0.0,
        0.0,
        0.0,
        0.0,
        1.0
      ],
      "name": "Object_4"
    },
    {
      "name": "Object_5"
    },
    {
      "children": [
        7
      ],
      "matrix": [
        -65.15583280329096,
        -44.52713576570858,
        -61.41703047373549,
        0.0,
        -32.40134137821245,
        89.53957451233616,
        -30.542088974418615,
        0.0,
        68.59205472129975,
        -1.0718647115348782e-05,
        -72.7676336239627,
        0.0,
        735.88916015625,
        495.8309326171875,
        692.5791015625,
        1.0
      ],
      "name": "Camera"
    },
    {
      "name": "Object_7"
    },
    {
      "children": [
        9,
        10
      ],
      "matrix": [
        92.17322847157057,
        35.28262763535532,
        16.100687571421126,
        0.0,
        38.78267594077878,
        -83.85481904885872,
        -38.26582508133986,
        0.0,
        1.3853591729340309e-05,
        41.51512386381644,
        -90.97524108553814,
        0.0,
        0.0,
        0.0,
        0.0,
        1.0
      ],
      "name": "Sphere"
    },
    {
      "mesh": 0,
      "name": "Sphere_Material.004_0"
    },
    {
      "children": [
        11,
        12
      ],
      "matrix": [
        0.9999998807907103,
        1.4901161325686637e-08,
        -7.216449660063518e-16,
        0.0,
        -1.490116221386516e-08,
        0.999999940395355,
        1.4901160416691542e-08,
        0.0,
        9.436896870468754e-16,
        -1.4901161304869955e-08,
        0.9999999999999999,
        0.0,
        0.9628235101699829,
        -0.20549489557743073,
        -0.0029808133840560913,
        1.0
      ],
      "name": "Cylinder.002"
    },
    {
      "mesh": 1,
      "name": "Cylinder.002_Material.002_0"
    },
    {
      "mesh": 2,
      "name": "Cylinder.002_Material.002_0"
    }
  ],
  "samplers": [
    {
      "magFilter": 9729,
      "minFilter": 9987,
      "wrapS": 10497,
      "wrapT": 10497
    }
  ],
  "scene": 0,
  "scenes": [
    {
      "name": "Sketchfab_Scene",
      "nodes": [
        0
      ]
    }
  ],
  "textures": [
    {
      "sampler": 0,
      "source": 0
    }
  ]
}
